<svg width="32" height="29" viewBox="0 0 32 29" fill="currentColor" xmlns="http://www.w3.org/2000/svg">
<path d="M31.9916 14.1957C31.9916 15.1957 31.1582 15.9791 30.2137 15.9791H28.4358L28.4746 24.8799C28.4746 25.0299 28.4635 25.1799 28.4469 25.3299V26.2245C28.4469 27.4523 27.4523 28.4469 26.2245 28.4469H25.3355C25.2744 28.4469 25.2133 28.4469 25.1521 28.4413C25.0744 28.4469 24.9966 28.4469 24.9188 28.4469H23.1131H21.7796C20.5517 28.4469 19.5572 27.4523 19.5572 26.2245V24.891V21.3352C19.5572 20.3517 18.7627 19.5572 17.7793 19.5572H14.2234C13.24 19.5572 12.4455 20.3517 12.4455 21.3352V24.891V26.2245C12.4455 27.4523 11.451 28.4469 10.2231 28.4469H8.88965H7.11727C7.03393 28.4469 6.95059 28.4413 6.86725 28.4358C6.80058 28.4413 6.73391 28.4469 6.66723 28.4469H5.77827C4.55039 28.4469 3.55586 27.4523 3.55586 26.2245V20.0017C3.55586 19.9517 3.55586 19.8961 3.56141 19.8461V15.9791H1.77793C0.777844 15.9791 0 15.2013 0 14.1957C0 13.6956 0.166681 13.2511 0.555603 12.8622L14.8013 0.444482C15.1902 0.0555603 15.6347 0 16.0236 0C16.4125 0 16.857 0.111121 17.1904 0.388922L31.3804 12.8622C31.8249 13.2511 32.0472 13.6956 31.9916 14.1957Z" />
</svg>
