<svg xmlns="http://www.w3.org/2000/svg" width="32" height="32" fill="currentColor" viewBox="0 0 32 32">
  <path d="M10.703 25.123c0 .129-.148.232-.335.232-.213.02-.361-.084-.361-.232 0-.13.148-.233.335-.233.194-.019.361.084.361.233Zm-2.006-.29c-.045.128.084.277.277.315.168.065.361 0 .4-.129.039-.129-.084-.277-.277-.335-.168-.045-.355.02-.4.148Zm2.851-.11c-.187.045-.316.167-.296.316.019.129.187.213.38.167.187-.045.316-.167.297-.296-.02-.123-.194-.207-.38-.187ZM15.793 0C6.845 0 0 6.794 0 15.742c0 7.155 4.503 13.277 10.935 15.432.826.149 1.117-.361 1.117-.78 0-.4-.02-2.607-.02-3.962 0 0-4.516.968-5.464-1.922 0 0-.736-1.878-1.794-2.362 0 0-1.477-1.012.103-.993 0 0 1.607.129 2.49 1.664 1.414 2.49 3.781 1.774 4.704 1.349.148-1.032.568-1.749 1.032-2.174-3.606-.4-7.245-.923-7.245-7.13 0-1.774.49-2.664 1.523-3.8-.168-.419-.716-2.148.167-4.38C8.897 6.264 12 8.426 12 8.426a15.158 15.158 0 0 1 4.052-.549c1.374 0 2.76.188 4.051.549 0 0 3.103-2.168 4.452-1.742.884 2.239.335 3.961.168 4.38 1.032 1.143 1.664 2.033 1.664 3.8 0 6.226-3.8 6.723-7.406 7.13.593.51 1.096 1.477 1.096 2.993 0 2.174-.019 4.865-.019 5.394 0 .419.297.929 1.116.78C27.626 29.02 32 22.897 32 15.741 32 6.795 24.742 0 15.794 0ZM6.271 22.252c-.084.064-.065.213.045.335.103.103.252.148.336.065.083-.065.064-.213-.046-.336-.103-.103-.251-.148-.335-.064Zm-.697-.523c-.045.084.02.187.149.252.103.064.232.045.277-.046.045-.083-.02-.187-.148-.251-.13-.039-.233-.02-.278.045Zm2.09 2.297c-.103.084-.064.277.084.4.149.148.336.168.42.064.084-.083.045-.277-.084-.4-.142-.148-.336-.167-.42-.064Zm-.735-.949c-.103.065-.103.233 0 .381.103.149.277.213.361.149.104-.084.104-.252 0-.4-.09-.149-.258-.213-.361-.13Z"/>
</svg>
